<?xml version="1.0" encoding="UTF-8" standalone="no"?>
<svg
   xmlns:dc="http://purl.org/dc/elements/1.1/"
   xmlns:cc="http://creativecommons.org/ns#"
   xmlns:rdf="http://www.w3.org/1999/02/22-rdf-syntax-ns#"
   xmlns:svg="http://www.w3.org/2000/svg"
   xmlns="http://www.w3.org/2000/svg"
   xmlns:xlink="http://www.w3.org/1999/xlink"
   xmlns:sodipodi="http://sodipodi.sourceforge.net/DTD/sodipodi-0.dtd"
   xmlns:inkscape="http://www.inkscape.org/namespaces/inkscape"
   version="1.1"
   id="Ebene_1"
   x="0px"
   y="0px"
   viewBox="0 0 313.3 182.1"
   xml:space="preserve"
   sodipodi:docname="bso-logo-white.svg"
   inkscape:version="1.0.1 (3bc2e813f5, 2020-09-07)"
   width="313.29999"
   height="182.10001"><metadata
   id="metadata269"><rdf:RDF><cc:Work
       rdf:about=""><dc:format>image/svg+xml</dc:format><dc:type
         rdf:resource="http://purl.org/dc/dcmitype/StillImage" /><dc:title></dc:title></cc:Work></rdf:RDF></metadata><defs
   id="defs267"><linearGradient
   inkscape:collect="always"
   id="linearGradient2994"><stop
     style="stop-color:#aa0000;stop-opacity:1"
     offset="0"
     id="stop2990" /><stop
     style="stop-color:#ffffff;stop-opacity:1"
     offset="1"
     id="stop2992" /></linearGradient><rect
   x="82.886864"
   y="162.06238"
   width="228.55743"
   height="77.319839"
   id="rect2900" /><linearGradient
   inkscape:collect="always"
   id="linearGradient1497"><stop
     style="stop-color:#ffff00;stop-opacity:1"
     offset="0"
     id="stop1493" /><stop
     style="stop-color:#ff2a2a;stop-opacity:1"
     offset="1"
     id="stop1495" /></linearGradient><linearGradient
   inkscape:collect="always"
   xlink:href="#linearGradient1497"
   id="linearGradient1499"
   x1="46.701183"
   y1="113.50552"
   x2="181.2377"
   y2="114.12408"
   gradientUnits="userSpaceOnUse" />
	
	
	
	
	
	
	
	

	
	
	
	
	
	
	
	
	
	

	
	
	
	
	
	
	
	
	
	
	
	
<linearGradient
   inkscape:collect="always"
   xlink:href="#linearGradient2994"
   id="linearGradient2996"
   x1="146.2"
   y1="82.099998"
   x2="381.40152"
   y2="227.44127"
   gradientUnits="userSpaceOnUse" /></defs><sodipodi:namedview
   pagecolor="#ffffff"
   bordercolor="#666666"
   borderopacity="1"
   objecttolerance="10"
   gridtolerance="10"
   guidetolerance="10"
   inkscape:pageopacity="0"
   inkscape:pageshadow="2"
   inkscape:window-width="1920"
   inkscape:window-height="1137"
   id="namedview265"
   showgrid="false"
   inkscape:zoom="2.2863045"
   inkscape:cx="214.78741"
   inkscape:cy="141.15576"
   inkscape:window-x="-8"
   inkscape:window-y="-8"
   inkscape:window-maximized="1"
   inkscape:current-layer="Ebene_1" />
<style
   type="text/css"
   id="style196">
	.st0{fill:#95C11F;}
	.st1{fill:#36A9E1;}
	.st2{fill:#29235C;}
</style>


<g
   id="g1841"
   style="fill:#f9f9f9;fill-opacity:1"><path
     class="st0"
     d="m 55.1,106.3 h -3.9 c -1.3,0 -2.4,0.4 -3.2,1.3 -0.8,0.8 -1.2,1.9 -1.2,3.2 v 5.9 c 0,1.3 0.4,2.3 1.2,3.1 0.8,0.8 1.9,1.2 3.2,1.2 h 3.9 c 1.3,0 2.3,-0.4 3.1,-1.3 0.8,-0.9 1.2,-1.9 1.2,-3.2 v -5.8 c 0,-1.3 -0.4,-2.3 -1.2,-3.2 -0.8,-0.8 -1.9,-1.2 -3.1,-1.2 z m 0.1,10.4 c 0,0.7 -0.2,1.2 -0.6,1.6 -0.4,0.4 -0.9,0.6 -1.5,0.6 -0.6,0 -1.1,-0.2 -1.5,-0.6 -0.4,-0.4 -0.6,-0.9 -0.6,-1.6 v -6.2 c 0,-0.6 0.2,-1.1 0.6,-1.5 0.4,-0.4 0.9,-0.6 1.5,-0.6 0.6,0 1.1,0.2 1.5,0.6 0.4,0.4 0.6,0.9 0.6,1.6 z"
     id="path200"
     style="fill:#f9f9f9;fill-opacity:1" /><path
     class="st0"
     d="m 71.7,106.3 h -2.1 c -1.2,0 -1.9,0.7 -2.2,2 v -6.1 h -4.2 v 18.9 h 8 c 1.5,0 2.6,-0.4 3.4,-1.3 0.8,-0.8 1.2,-1.9 1.2,-3.1 v -6.3 c 0,-1.1 -0.4,-2.1 -1.3,-2.9 -0.7,-0.8 -1.6,-1.2 -2.8,-1.2 z m 0,10.4 c 0,0.7 -0.2,1.2 -0.6,1.6 -0.4,0.4 -0.9,0.6 -1.5,0.6 h -2.1 v -8.4 c 0,-0.6 0.2,-1.1 0.6,-1.5 0.4,-0.4 0.9,-0.6 1.5,-0.6 0.6,0 1.1,0.2 1.6,0.6 0.4,0.4 0.6,1 0.6,1.6 v 6.1 z"
     id="path202"
     style="fill:#f9f9f9;fill-opacity:1" /><path
     class="st0"
     d="m 88.2,106.3 h -4 c -1.3,0 -2.3,0.4 -3.1,1.3 -0.8,0.9 -1.2,1.9 -1.2,3.1 v 6 c 0,1.3 0.4,2.3 1.3,3.1 0.8,0.8 1.9,1.2 3.1,1.2 h 4.1 c 2.5,0 3.9,-1.4 4.3,-4.1 h -2.1 c 0,1.4 -0.7,2 -2.1,2 h -2 c -0.7,0 -1.2,-0.2 -1.6,-0.6 -0.4,-0.4 -0.6,-1 -0.6,-1.6 v -2 h 8.5 v -4.1 c 0,-1.2 -0.4,-2.3 -1.2,-3.1 -1.2,-0.8 -2.2,-1.2 -3.4,-1.2 z m 0.1,6.4 H 84 v -2 c 0,-0.6 0.2,-1.1 0.6,-1.6 0.4,-0.4 0.9,-0.7 1.5,-0.7 0.6,0 1.1,0.2 1.5,0.7 0.4,0.4 0.6,1 0.6,1.6 v 2 z"
     id="path204"
     style="fill:#f9f9f9;fill-opacity:1" /><path
     class="st0"
     d="m 100.6,110.5 v -4.2 h -4.2 v 14.8 h 4.2 v -8.3 c 0,-0.6 0.2,-1.2 0.6,-1.6 0.4,-0.4 1,-0.6 1.6,-0.6 h 4.1 v -4.2 h -2.1 c -2.5,-0.1 -3.9,1.3 -4.2,4.1 z"
     id="path206"
     style="fill:#f9f9f9;fill-opacity:1" /><path
     class="st0"
     d="m 115.2,108.4 c 1.2,0 1.8,0.7 2,2 h 2.1 c -0.2,-2.8 -1.6,-4.1 -4.2,-4.1 H 113 c -1.2,0 -2.2,0.4 -3,1.2 -0.8,0.8 -1.2,1.8 -1.2,3 0,1 0.2,1.7 0.7,2.2 0.4,0.5 1.1,1 2,1.5 l 1.8,1 c 0.5,0.3 1,0.6 1.3,0.9 0.4,0.3 0.5,0.6 0.5,1 0,0.6 -0.2,1 -0.6,1.3 -0.4,0.3 -0.9,0.4 -1.6,0.4 -1.2,0 -1.9,-0.7 -2,-2 h -2.1 c 0,2.8 1.4,4.1 4.2,4.1 h 2.1 c 1.2,0 2.2,-0.4 3,-1.2 0.8,-0.8 1.2,-1.8 1.2,-3 0,-0.8 -0.2,-1.5 -0.5,-2 -0.3,-0.5 -0.9,-1 -1.7,-1.5 l -2,-1.1 c -0.6,-0.4 -1.1,-0.7 -1.5,-1 -0.4,-0.3 -0.6,-0.7 -0.6,-1 0,-0.5 0.2,-1 0.5,-1.3 0.4,-0.3 0.9,-0.4 1.7,-0.4 z"
     id="path208"
     style="fill:#f9f9f9;fill-opacity:1" /><path
     class="st0"
     d="m 131.7,106.3 h -2.1 c -1.2,0 -1.9,0.7 -2.2,2 v -6.1 h -4.2 v 18.9 h 8 c 1.5,0 2.6,-0.4 3.4,-1.3 0.8,-0.8 1.2,-1.9 1.2,-3.1 v -6.3 c 0,-1.1 -0.4,-2.1 -1.3,-2.9 -0.7,-0.8 -1.7,-1.2 -2.8,-1.2 z m -0.1,10.4 c 0,0.7 -0.2,1.2 -0.6,1.6 -0.4,0.4 -0.9,0.6 -1.5,0.6 h -2.1 v -8.4 c 0,-0.6 0.2,-1.1 0.6,-1.5 0.4,-0.4 0.9,-0.6 1.5,-0.6 0.6,0 1.1,0.2 1.6,0.6 0.4,0.4 0.6,1 0.6,1.6 v 6.1 z"
     id="path210"
     style="fill:#f9f9f9;fill-opacity:1" /><path
     class="st0"
     d="m 148.1,106.3 h -4 c -1.3,0 -2.3,0.4 -3.1,1.3 -0.8,0.9 -1.2,1.9 -1.2,3.1 v 6 c 0,1.3 0.4,2.3 1.3,3.1 0.8,0.8 1.9,1.2 3.1,1.2 h 4.1 c 2.5,0 3.9,-1.4 4.3,-4.1 h -2.1 c 0,1.4 -0.7,2 -2.1,2 h -2 c -0.7,0 -1.2,-0.2 -1.6,-0.6 -0.4,-0.4 -0.6,-1 -0.6,-1.6 v -2 h 8.5 v -4.1 c 0,-1.2 -0.4,-2.3 -1.2,-3.1 -1.1,-0.8 -2.2,-1.2 -3.4,-1.2 z m 0.1,6.4 H 144 v -2 c 0,-0.6 0.2,-1.1 0.6,-1.6 0.4,-0.4 0.9,-0.7 1.5,-0.7 0.6,0 1.1,0.2 1.5,0.7 0.4,0.4 0.6,1 0.6,1.6 z"
     id="path212"
     style="fill:#f9f9f9;fill-opacity:1" /><path
     class="st0"
     d="m 160.5,110.5 v -4.2 h -4.2 v 14.8 h 4.2 v -8.3 c 0,-0.6 0.2,-1.2 0.6,-1.6 0.4,-0.4 1,-0.6 1.6,-0.6 h 4.1 v -4.2 h -2.1 c -2.4,-0.1 -3.9,1.3 -4.2,4.1 z"
     id="path214"
     style="fill:#f9f9f9;fill-opacity:1" /><path
     class="st0"
     d="m 169.9,107.5 c -0.8,0.8 -1.2,1.9 -1.2,3.1 v 6.3 c 0,1.2 0.4,2.1 1.3,3 0.8,0.8 1.8,1.2 3,1.2 h 2.1 c 1.2,0 1.9,-0.7 2.1,-2.1 v 4.1 c 0,0.6 -0.2,1.1 -0.6,1.6 -0.4,0.4 -0.9,0.6 -1.6,0.6 h -2.1 c -1.3,0 -2,-0.7 -2.1,-2.2 h -2.1 c 0.3,2.8 1.7,4.3 4.2,4.3 h 4.1 c 1.3,0 2.3,-0.4 3.2,-1.2 0.8,-0.8 1.3,-1.9 1.3,-3.1 v -16.7 h -8.1 c -1.6,-0.1 -2.7,0.3 -3.5,1.1 z m 5.2,0.9 h 2.1 v 8.4 c 0,0.6 -0.2,1.1 -0.6,1.6 -0.4,0.4 -0.9,0.6 -1.5,0.6 -0.6,0 -1.1,-0.2 -1.5,-0.6 -0.4,-0.4 -0.7,-0.9 -0.7,-1.7 v -6.1 c 0,-0.6 0.2,-1.2 0.6,-1.6 0.4,-0.4 0.9,-0.6 1.6,-0.6 z"
     id="path216"
     style="fill:#f9f9f9;fill-opacity:1" /><path
     class="st1"
     d="m 56.4,66.1 c 1.8,0 2.9,1.1 3.2,3.3 H 63 C 62.7,65 60.5,62.8 56.3,62.8 H 53 c -1.9,0 -3.5,0.7 -4.8,2 -1.3,1.3 -2,2.9 -2,4.7 0,1.6 0.3,2.7 1,3.6 0.7,0.8 1.7,1.6 3.2,2.5 l 2.9,1.7 c 0.8,0.5 1.5,1 2.1,1.5 0.6,0.5 0.9,1 0.9,1.5 0,1 -0.3,1.7 -0.9,2.1 -0.6,0.5 -1.5,0.7 -2.6,0.7 -1.9,0 -3,-1.1 -3.2,-3.3 h -3.4 c 0,4.4 2.2,6.6 6.7,6.6 h 3.3 c 1.9,0 3.5,-0.7 4.8,-2 1.3,-1.3 2,-2.9 2,-4.8 0,-1.3 -0.2,-2.4 -0.7,-3.2 C 61.8,75.6 60.9,74.8 59.6,74 L 56.3,72.2 C 55.3,71.6 54.5,71.1 53.9,70.5 53.3,70 53,69.4 53,68.9 c 0,-0.9 0.3,-1.5 0.8,-2 0.5,-0.6 1.4,-0.8 2.6,-0.8 z"
     id="path222"
     style="fill:#f9f9f9;fill-opacity:1" /><path
     class="st1"
     d="m 73,67.1 c 0.7,-0.7 1.5,-1 2.4,-1 1.9,0 3,1.1 3.3,3.3 H 82 C 81.7,65 79.6,62.8 75.5,62.8 h -3.2 c -2,0 -3.7,0.6 -5,1.9 -1.4,1.3 -2,2.9 -2,5 v 9.6 c 0,2 0.7,3.7 2,5 1.3,1.3 3,2 5.1,2 h 3.3 c 2,0 3.5,-0.6 4.6,-1.7 1.1,-1.1 1.7,-2.8 1.8,-4.9 h -3.4 c -0.3,2.2 -1.4,3.3 -3.3,3.3 -1,0 -1.8,-0.3 -2.4,-1 -0.7,-0.7 -1,-1.5 -1,-2.6 v -9.9 c 0,-0.9 0.3,-1.8 1,-2.4 z"
     id="path224"
     style="fill:#f9f9f9;fill-opacity:1" /><path
     class="st1"
     d="M 97.4,62.8 H 94 c -0.9,0 -1.5,0.2 -2.1,0.7 -0.5,0.5 -1,1.4 -1.3,2.8 V 56.2 h -6.7 v 30.2 h 6.7 v -17 c 0,-0.9 0.3,-1.7 1,-2.3 0.7,-0.7 1.5,-1 2.4,-1 0.9,0 1.7,0.3 2.4,1 0.7,0.7 1,1.5 1,2.6 v 16.7 h 6.7 V 69.7 c 0,-1.9 -0.6,-3.5 -1.9,-4.9 -1.3,-1.4 -2.9,-2 -4.8,-2 z"
     id="path226"
     style="fill:#f9f9f9;fill-opacity:1" /><path
     class="st1"
     d="m 120.1,79.5 c 0,1 -0.3,1.8 -1,2.5 -0.7,0.7 -1.4,1 -2.3,1 -1,0 -1.8,-0.3 -2.5,-1 -0.7,-0.7 -1,-1.5 -1,-2.6 V 62.8 h -6.7 v 16.7 c 0,2 0.7,3.6 2,4.9 1.3,1.3 2.9,2 4.7,2 h 3.4 c 1,0 1.8,-0.3 2.3,-0.8 0.5,-0.6 0.9,-1.4 1.1,-2.6 v 3.5 h 6.7 V 62.8 h -6.7 z"
     id="path228"
     style="fill:#f9f9f9;fill-opacity:1" /><rect
     x="129.5"
     y="56.200001"
     class="st1"
     width="6.6999998"
     height="30.200001"
     id="rect230"
     style="fill:#f9f9f9;fill-opacity:1" /><path
     class="st1"
     d="m 151.8,62.8 h -6.4 c -2,0 -3.7,0.7 -5,2 -1.3,1.4 -1.9,3 -1.9,5 v 9.6 c 0,2 0.7,3.7 2,5 1.3,1.3 3,2 4.9,2 h 6.5 c 4,0 6.3,-2.2 6.9,-6.6 h -3.4 c 0,2.2 -1.1,3.3 -3.4,3.3 h -3.2 c -1.1,0 -2,-0.3 -2.6,-1 -0.7,-0.7 -1,-1.5 -1,-2.6 v -3.2 h 13.5 v -6.6 c 0,-2 -0.7,-3.6 -2,-4.9 -1.3,-1.4 -3,-2 -4.9,-2 z m 0.1,10.1 h -6.8 v -3.3 c 0,-1 0.3,-1.8 1,-2.5 0.7,-0.7 1.5,-1 2.4,-1 0.9,0 1.7,0.3 2.4,1 0.7,0.7 1,1.5 1,2.6 z"
     id="path232"
     style="fill:#f9f9f9;fill-opacity:1" /><path
     class="st1"
     d="m 174.6,62.8 h -3.4 c -0.8,0 -1.4,0.3 -2,0.8 -0.6,0.5 -1,1.4 -1.4,2.7 v -3.5 h -6.7 v 23.6 h 6.7 V 69.5 c 0,-0.9 0.3,-1.7 1,-2.4 0.7,-0.7 1.5,-1 2.4,-1 0.9,0 1.7,0.3 2.4,1 0.7,0.7 1,1.5 1,2.6 v 16.7 h 6.7 V 69.7 c 0,-1.9 -0.6,-3.6 -1.9,-4.9 -1.3,-1.4 -2.9,-2 -4.8,-2 z"
     id="path234"
     style="fill:#f9f9f9;fill-opacity:1" /><path
     class="st2"
     d="m 13.5,27.6 h -3.4 c -2,0 -3.1,1 -3.4,3.1 V 21 H 0 v 30.2 h 12.8 c 2.4,0 4.2,-0.7 5.5,-2 1.3,-1.3 1.9,-3 1.9,-4.9 V 34.2 c 0,-1.8 -0.7,-3.4 -2,-4.7 -1.3,-1.3 -2.9,-1.9 -4.7,-1.9 z m 0,16.7 c 0,1 -0.3,1.9 -0.9,2.6 -0.6,0.7 -1.4,1 -2.5,1 H 6.7 V 34.4 c 0,-1 0.3,-1.8 1,-2.4 0.7,-0.7 1.5,-1 2.4,-1 1,0 1.8,0.3 2.5,1 0.7,0.7 1,1.5 1,2.6 v 9.7 z"
     id="path240"
     style="fill:#f9f9f9;fill-opacity:1" /><path
     class="st2"
     d="m 36.1,27.6 h -6.4 c -2,0 -3.7,0.7 -5,2 -1.3,1.4 -1.9,3 -1.9,5 v 9.6 c 0,2 0.7,3.7 2,5 1.3,1.3 3,2 4.9,2 h 6.5 c 4,0 6.3,-2.2 6.9,-6.6 h -3.4 c 0,2.2 -1.1,3.3 -3.4,3.3 H 33 c -1.1,0 -2,-0.3 -2.6,-1 -0.7,-0.7 -1,-1.5 -1,-2.6 v -3.2 h 13.5 v -6.6 c 0,-2 -0.7,-3.6 -2,-4.9 -1.3,-1.4 -2.9,-2 -4.8,-2 z m 0.1,10.1 h -6.8 v -3.3 c 0,-1 0.3,-1.8 1,-2.5 0.7,-0.7 1.5,-1 2.4,-1 0.9,0 1.7,0.3 2.4,1 0.7,0.7 1,1.5 1,2.6 z"
     id="path242"
     style="fill:#f9f9f9;fill-opacity:1" /><path
     class="st2"
     d="m 86.7,22.6 c -1.3,1.2 -1.9,2.7 -1.9,4.5 v 0.3 3.3 20.2 h 6.7 V 30.7 H 95 v -3.3 h -3.5 v -0.3 c 0,-0.8 0.3,-1.5 0.9,-2.1 0.6,-0.6 1.4,-0.9 2.3,-0.9 h 3.4 v -3.3 h -6.7 c -1.9,0 -3.4,0.6 -4.7,1.8 z"
     id="path244"
     style="fill:#f9f9f9;fill-opacity:1" /><rect
     x="100.3"
     y="21"
     class="st2"
     width="6.6999998"
     height="30.200001"
     id="rect246"
     style="fill:#f9f9f9;fill-opacity:1" /><rect
     x="109.8"
     y="27.6"
     class="st2"
     width="6.6999998"
     height="23.6"
     id="rect248"
     style="fill:#f9f9f9;fill-opacity:1" /><rect
     x="109.8"
     y="20.9"
     class="st2"
     width="6.6999998"
     height="4.8000002"
     id="rect250"
     style="fill:#f9f9f9;fill-opacity:1" /><path
     class="st2"
     d="m 127,31.9 c 0.7,-0.7 1.5,-1 2.4,-1 1.9,0 3,1.1 3.3,3.3 h 3.4 c -0.3,-4.4 -2.4,-6.6 -6.5,-6.6 h -3.2 c -2,0 -3.7,0.6 -5,1.9 -1.4,1.3 -2,2.9 -2,5 v 9.6 c 0,2 0.7,3.7 2,5 1.3,1.3 3,2 5.1,2 h 3.3 c 2,0 3.5,-0.6 4.6,-1.7 1.1,-1.1 1.7,-2.8 1.8,-4.9 h -3.4 c -0.3,2.2 -1.4,3.3 -3.3,3.3 -1,0 -1.8,-0.3 -2.4,-1 -0.7,-0.7 -1,-1.5 -1,-2.6 v -9.9 c -0.1,-0.9 0.2,-1.7 0.9,-2.4 z"
     id="path252"
     style="fill:#f9f9f9;fill-opacity:1" /><path
     class="st2"
     d="m 152.1,27.6 h -3.4 c -0.9,0 -1.5,0.2 -2.1,0.7 -0.5,0.5 -0.9,1.4 -1.3,2.8 V 21 h -6.7 v 30.2 h 6.7 v -17 c 0,-0.9 0.3,-1.7 1,-2.3 0.7,-0.7 1.5,-1 2.4,-1 0.9,0 1.7,0.3 2.4,1 0.7,0.7 1,1.5 1,2.6 v 16.7 h 6.7 V 34.5 c 0,-1.9 -0.6,-3.5 -1.9,-4.9 -1.3,-1.3 -2.9,-2 -4.8,-2 z"
     id="path254"
     style="fill:#f9f9f9;fill-opacity:1" /><path
     class="st2"
     d="M 174.5,27.6 H 168 c -2,0 -3.7,0.7 -5,2 -1.3,1.4 -1.9,3 -1.9,5 v 9.6 c 0,2 0.7,3.7 2,5 1.3,1.3 3,2 4.9,2 h 6.5 c 4,0 6.3,-2.2 6.9,-6.6 H 178 c 0,2.2 -1.1,3.3 -3.4,3.3 h -3.2 c -1.1,0 -2,-0.3 -2.6,-1 -0.7,-0.7 -1,-1.5 -1,-2.6 v -3.2 h 13.5 v -6.6 c 0,-2 -0.7,-3.6 -2,-4.9 -1.3,-1.4 -2.9,-2 -4.8,-2 z m 0.1,10.1 h -6.8 v -3.3 c 0,-1 0.3,-1.8 1,-2.5 0.7,-0.7 1.5,-1 2.4,-1 0.9,0 1.7,0.3 2.4,1 0.7,0.7 1,1.5 1,2.6 z"
     id="path256"
     style="fill:#f9f9f9;fill-opacity:1" /><path
     class="st2"
     d="m 51.9,34.3 v -6.7 h -6.7 v 23.6 h 6.7 V 37.9 c 0,-1 0.3,-1.9 1,-2.6 0.7,-0.7 1.5,-1 2.6,-1 h 4.1 v -6.7 h -1 c -3.9,0 -6.2,2.2 -6.7,6.7 z"
     id="path258"
     style="fill:#f9f9f9;fill-opacity:1" /><path
     class="st2"
     d="m 75.1,44.3 c 0,1 -0.3,1.8 -1,2.5 -0.7,0.7 -1.4,1 -2.3,1 -1,0 -1.8,-0.3 -2.5,-1 -0.7,-0.7 -1,-1.5 -1,-2.6 V 27.6 h -6.7 v 16.7 c 0,2 0.7,3.6 2,4.9 1.3,1.3 2.9,2 4.7,2 h 3.4 c 1,0 1.8,-0.3 2.3,-0.8 0.5,-0.6 0.9,-1.4 1.1,-2.6 v 3.5 h 6.7 V 27.6 h -6.7 z"
     id="path260"
     style="fill:#f9f9f9;fill-opacity:1" /></g>
<g
   id="g2988"
   style="fill-opacity:1;fill:url(#linearGradient2996)"><path
     class="st0"
     d="m 291.4,59.5 c -0.4,-0.2 -1,-0.1 -1.3,0.2 -0.3,0.3 -0.4,0.8 -0.1,1.2 7.5,10 11.2,21.3 11.2,33.5 0,11.6 -2.7,21.2 -8.1,28.3 -0.3,0.4 -0.2,0.9 0.1,1.2 0.2,0.2 0.5,0.3 0.8,0.3 0.2,0 0.4,0 0.5,-0.1 12.4,-6.3 18.6,-16.7 18.6,-30.8 0.2,-15.7 -7.2,-27.1 -21.7,-33.8 z"
     id="path198"
     style="mix-blend-mode:normal;fill:url(#linearGradient2996);fill-opacity:1" /><path
     class="st1"
     d="m 277.9,90.6 c -4.9,-4.9 -15.2,-8.8 -31.4,-11.9 -7.6,-1.5 -12.7,-2.8 -15.2,-4.1 -2.4,-1.2 -3.6,-2.9 -3.6,-5.1 0,-3 1.7,-5.3 5.1,-7 3.7,-1.7 8,-2.5 12.8,-2.5 6.2,0 12.3,1.7 18.4,4.9 6.1,3.3 10.6,8.3 13.3,14.9 0.2,0.4 0.6,0.6 1,0.6 h 1.7 c 0,0 0,0 0,0 0.6,0 1.1,-0.4 1.1,-1 0,-0.1 0,-0.1 0,-0.2 0,-4 -0.1,-7.4 -0.4,-10.1 -0.3,-3 -0.5,-5.8 -0.5,-8.5 0,0 0,-0.4 0.2,-2.9 0,-0.4 -0.2,-0.8 -0.7,-1 -10.3,-3.6 -20.5,-5.5 -30.4,-5.5 -10.4,0 -18.4,1.7 -23.8,4.9 -5.6,3.4 -8.5,8 -8.5,13.6 0,5 2,8.9 5.8,11.5 3.6,2.4 10.1,4.7 19.3,6.6 15.1,3.2 24.8,7 28.8,11.5 4.1,4.5 6.2,9.6 6.2,15 0,1.8 -0.3,4.1 -1,6.8 -0.1,0.5 0.2,0.9 0.6,1.1 0.1,0.1 0.3,0.1 0.4,0.1 0.3,0 0.7,-0.1 0.9,-0.4 4.7,-5.8 7.1,-11.1 7.1,-15.7 0.1,-5.5 -2.4,-10.7 -7.2,-15.6 z"
     id="path220"
     style="mix-blend-mode:normal;fill:url(#linearGradient2996);fill-opacity:1" /><path
     class="st2"
     d="M 244.3,128.2 C 222.7,123.2 211.2,107.8 211,83.7 V 2.1 c 0,-0.5 -0.5,-1 -1.1,-1 -7.8,-0.1 -16.1,-0.5 -24.5,-1.2 -0.3,0 -0.6,0.1 -0.8,0.3 -0.2,0.2 -0.4,0.4 -0.4,0.7 v 1.9 c 0,0.4 0.3,0.8 0.8,1 4.1,0.9 7.3,2.3 9.5,4 2.1,1.8 3.4,3.8 4.1,6.1 0.7,2.4 1.1,7 1.1,13.6 v 56.3 c 0.5,29.6 13.7,43.4 44.2,46.4 0,0 0.1,0 0.1,0 0.5,0 1,-0.3 1.1,-0.8 0.1,-0.6 -0.3,-1.1 -0.8,-1.2 z"
     id="path238"
     style="mix-blend-mode:normal;fill:url(#linearGradient2996);fill-opacity:1" /><text
     xml:space="preserve"
     id="text2898"
     style="font-style:normal;font-variant:normal;font-weight:normal;font-stretch:normal;font-size:40px;line-height:1.25;font-family:'Berlin Sans FB';-inkscape-font-specification:'Berlin Sans FB, Normal';font-variant-ligatures:normal;font-variant-caps:normal;font-variant-numeric:normal;font-variant-east-asian:normal;letter-spacing:0px;word-spacing:0px;white-space:pre;shape-inside:url(#rect2900);fill:url(#linearGradient2996);fill-opacity:1;stroke:none;"
     transform="matrix(1.2137158,0,0,1.2137158,-57.058859,-61.353503)"><tspan
       x="82.886719"
       y="199.67023"><tspan
         style="font-style:normal;font-variant:normal;font-weight:normal;font-stretch:normal;font-size:40px;font-family:'Berlin Sans FB';-inkscape-font-specification:'Berlin Sans FB, Normal';font-variant-ligatures:normal;font-variant-caps:normal;font-variant-numeric:normal;font-variant-east-asian:normal;fill:url(#linearGradient2996);fill-opacity:1">Feueralarm</tspan></tspan></text></g></svg>
