<?xml version="1.0" encoding="UTF-8" standalone="no"?>
<svg
   xmlns:dc="http://purl.org/dc/elements/1.1/"
   xmlns:cc="http://creativecommons.org/ns#"
   xmlns:rdf="http://www.w3.org/1999/02/22-rdf-syntax-ns#"
   xmlns:svg="http://www.w3.org/2000/svg"
   xmlns="http://www.w3.org/2000/svg"
   xmlns:xlink="http://www.w3.org/1999/xlink"
   xmlns:sodipodi="http://sodipodi.sourceforge.net/DTD/sodipodi-0.dtd"
   xmlns:inkscape="http://www.inkscape.org/namespaces/inkscape"
   version="1.1"
   id="Ebene_1"
   x="0px"
   y="0px"
   viewBox="0 0 128.90395 130.3"
   xml:space="preserve"
   sodipodi:docname="bso-logo-standalone.svg"
   inkscape:version="1.0.1 (3bc2e813f5, 2020-09-07)"
   width="128.90395"
   height="130.3"><metadata
   id="metadata269"><rdf:RDF><cc:Work
       rdf:about=""><dc:format>image/svg+xml</dc:format><dc:type
         rdf:resource="http://purl.org/dc/dcmitype/StillImage" /><dc:title></dc:title></cc:Work></rdf:RDF></metadata><defs
   id="defs267"><linearGradient
   inkscape:collect="always"
   id="linearGradient2994"><stop
     style="stop-color:#aa0000;stop-opacity:1"
     offset="0"
     id="stop2990" /><stop
     style="stop-color:#ffffff;stop-opacity:1"
     offset="1"
     id="stop2992" /></linearGradient><rect
   x="82.886864"
   y="162.06238"
   width="228.55743"
   height="77.319839"
   id="rect2900" /><linearGradient
   inkscape:collect="always"
   id="linearGradient1497"><stop
     style="stop-color:#ffff00;stop-opacity:1"
     offset="0"
     id="stop1493" /><stop
     style="stop-color:#ff2a2a;stop-opacity:1"
     offset="1"
     id="stop1495" /></linearGradient><linearGradient
   inkscape:collect="always"
   xlink:href="#linearGradient1497"
   id="linearGradient1499"
   x1="46.701183"
   y1="113.50552"
   x2="181.2377"
   y2="114.12408"
   gradientUnits="userSpaceOnUse" />
	
	
	
	
	
	
	
	

	
	
	
	
	
	
	
	
	
	

	
	
	
	
	
	
	
	
	
	
	
	
<linearGradient
   inkscape:collect="always"
   xlink:href="#linearGradient2994"
   id="linearGradient2996"
   x1="146.2"
   y1="82.099998"
   x2="381.40152"
   y2="227.44127"
   gradientUnits="userSpaceOnUse" /><linearGradient
   inkscape:collect="always"
   xlink:href="#linearGradient2994"
   id="linearGradient215"
   gradientUnits="userSpaceOnUse"
   x1="146.2"
   y1="82.099998"
   x2="381.40152"
   y2="227.44127" /><linearGradient
   inkscape:collect="always"
   xlink:href="#linearGradient2994"
   id="linearGradient217"
   gradientUnits="userSpaceOnUse"
   x1="146.2"
   y1="82.099998"
   x2="381.40152"
   y2="227.44127" /><linearGradient
   inkscape:collect="always"
   xlink:href="#linearGradient2994"
   id="linearGradient219"
   gradientUnits="userSpaceOnUse"
   x1="146.2"
   y1="82.099998"
   x2="381.40152"
   y2="227.44127" /><linearGradient
   inkscape:collect="always"
   xlink:href="#linearGradient2994"
   id="linearGradient221"
   gradientUnits="userSpaceOnUse"
   x1="146.2"
   y1="82.099998"
   x2="381.40152"
   y2="227.44127" /></defs><sodipodi:namedview
   pagecolor="#ffffff"
   bordercolor="#666666"
   borderopacity="1"
   objecttolerance="10"
   gridtolerance="10"
   guidetolerance="10"
   inkscape:pageopacity="0"
   inkscape:pageshadow="2"
   inkscape:window-width="1920"
   inkscape:window-height="1137"
   id="namedview265"
   showgrid="false"
   inkscape:zoom="2.2863045"
   inkscape:cx="214.28997"
   inkscape:cy="123.32289"
   inkscape:window-x="-8"
   inkscape:window-y="-8"
   inkscape:window-maximized="1"
   inkscape:current-layer="Ebene_1"
   inkscape:document-rotation="0"
   fit-margin-top="0"
   fit-margin-left="0"
   fit-margin-right="0"
   fit-margin-bottom="0"><inkscape:grid
     type="xygrid"
     id="grid223"
     originx="-0.49744002"
     originy="-17.832869" /></sodipodi:namedview>
<style
   type="text/css"
   id="style196">
	.st0{fill:#95C11F;}
	.st1{fill:#36A9E1;}
	.st2{fill:#29235C;}
</style>



<g
   id="g2988"
   style="fill:url(#linearGradient2996);fill-opacity:1"
   transform="translate(-184.2,0.1)"><g
     id="g213"
     style="fill:url(#linearGradient221)"><path
       class="st0"
       d="m 291.4,59.5 c -0.4,-0.2 -1,-0.1 -1.3,0.2 -0.3,0.3 -0.4,0.8 -0.1,1.2 7.5,10 11.2,21.3 11.2,33.5 0,11.6 -2.7,21.2 -8.1,28.3 -0.3,0.4 -0.2,0.9 0.1,1.2 0.2,0.2 0.5,0.3 0.8,0.3 0.2,0 0.4,0 0.5,-0.1 12.4,-6.3 18.6,-16.7 18.6,-30.8 0.2,-15.7 -7.2,-27.1 -21.7,-33.8 z"
       id="path198"
       style="mix-blend-mode:normal;fill:url(#linearGradient215);fill-opacity:1" /><path
       class="st1"
       d="m 277.9,90.6 c -4.9,-4.9 -15.2,-8.8 -31.4,-11.9 -7.6,-1.5 -12.7,-2.8 -15.2,-4.1 -2.4,-1.2 -3.6,-2.9 -3.6,-5.1 0,-3 1.7,-5.3 5.1,-7 3.7,-1.7 8,-2.5 12.8,-2.5 6.2,0 12.3,1.7 18.4,4.9 6.1,3.3 10.6,8.3 13.3,14.9 0.2,0.4 0.6,0.6 1,0.6 h 1.7 c 0,0 0,0 0,0 0.6,0 1.1,-0.4 1.1,-1 0,-0.1 0,-0.1 0,-0.2 0,-4 -0.1,-7.4 -0.4,-10.1 -0.3,-3 -0.5,-5.8 -0.5,-8.5 0,0 0,-0.4 0.2,-2.9 0,-0.4 -0.2,-0.8 -0.7,-1 -10.3,-3.6 -20.5,-5.5 -30.4,-5.5 -10.4,0 -18.4,1.7 -23.8,4.9 -5.6,3.4 -8.5,8 -8.5,13.6 0,5 2,8.9 5.8,11.5 3.6,2.4 10.1,4.7 19.3,6.6 15.1,3.2 24.8,7 28.8,11.5 4.1,4.5 6.2,9.6 6.2,15 0,1.8 -0.3,4.1 -1,6.8 -0.1,0.5 0.2,0.9 0.6,1.1 0.1,0.1 0.3,0.1 0.4,0.1 0.3,0 0.7,-0.1 0.9,-0.4 4.7,-5.8 7.1,-11.1 7.1,-15.7 0.1,-5.5 -2.4,-10.7 -7.2,-15.6 z"
       id="path220"
       style="mix-blend-mode:normal;fill:url(#linearGradient217);fill-opacity:1" /><path
       class="st2"
       d="M 244.3,128.2 C 222.7,123.2 211.2,107.8 211,83.7 V 2.1 c 0,-0.5 -0.5,-1 -1.1,-1 -7.8,-0.1 -16.1,-0.5 -24.5,-1.2 -0.3,0 -0.6,0.1 -0.8,0.3 -0.2,0.2 -0.4,0.4 -0.4,0.7 v 1.9 c 0,0.4 0.3,0.8 0.8,1 4.1,0.9 7.3,2.3 9.5,4 2.1,1.8 3.4,3.8 4.1,6.1 0.7,2.4 1.1,7 1.1,13.6 v 56.3 c 0.5,29.6 13.7,43.4 44.2,46.4 0,0 0.1,0 0.1,0 0.5,0 1,-0.3 1.1,-0.8 0.1,-0.6 -0.3,-1.1 -0.8,-1.2 z"
       id="path238"
       style="mix-blend-mode:normal;fill:url(#linearGradient219);fill-opacity:1" /></g></g></svg>
