<svg xmlns="http://www.w3.org/2000/svg" width="14.31" height="16.354" viewBox="0 0 14.31 16.354">
  <g id="lock-duotone" transform="translate(0 0)">
    <path id="Pfad_9" data-name="Pfad 9" d="M74.555,7.155H72v-2.3a4.855,4.855,0,0,1,9.71,0v2.3H79.155v-2.3a2.3,2.3,0,0,0-4.6,0Z" transform="translate(-69.7)" fill="#1a1f36" opacity="0.4"/>
    <path id="Pfad_10" data-name="Pfad 10" d="M14.31,225.533v6.133a1.533,1.533,0,0,1-1.533,1.533H1.533A1.533,1.533,0,0,1,0,231.666v-6.133A1.533,1.533,0,0,1,1.533,224H12.777A1.533,1.533,0,0,1,14.31,225.533Z" transform="translate(0 -216.845)" fill="#1a1f36"/>
  </g>
</svg>
