<svg xmlns="http://www.w3.org/2000/svg" width="15.394" height="11.548" viewBox="0 0 15.394 11.548">
  <g id="sign-in-alt-duotone" transform="translate(0 0)">
    <path id="Pfad_11" data-name="Pfad 11" d="M325.773,66.886v5.773a2.886,2.886,0,0,1-2.886,2.886h-2.526a.361.361,0,0,1-.361-.361v-1.2a.361.361,0,0,1,.361-.361h2.526a.962.962,0,0,0,.962-.962V66.886a.962.962,0,0,0-.962-.962h-2.526a.361.361,0,0,1-.361-.361v-1.2a.361.361,0,0,1,.361-.361h2.526A2.886,2.886,0,0,1,325.773,66.886Z" transform="translate(-310.379 -63.999)" fill="#000" opacity="0.4"/>
    <path id="Pfad_12" data-name="Pfad 12" d="M11.094,70.243,6.043,75.294a.723.723,0,0,1-1.233-.511V71.9H.722A.72.72,0,0,1,0,71.175V68.288a.72.72,0,0,1,.722-.722H4.81V64.68a.723.723,0,0,1,1.233-.511l5.051,5.051A.728.728,0,0,1,11.094,70.243Z" transform="translate(0 -63.957)" fill="#000"/>
  </g>
</svg>
